<?xml version="1.0" encoding="UTF-8" standalone="no"?>
<!DOCTYPE svg PUBLIC "-//W3C//DTD SVG 1.0//EN"
 "http://www.w3.org/TR/2001/REC-SVG-20010904/DTD/svg10.dtd" [
 <!ATTLIST svg xmlns:xlink CDATA #FIXED "http://www.w3.org/1999/xlink">
]>
<!-- Generated by Graphviz version 2.12 (Fri Feb  8 13:54:38 UTC 2008)
     For user: (liu) Liu Xin -->
<!-- Title: G_VIEWS Pages: 1 -->
<svg width="6.44in" height="3.97in"
 xmlns="http://www.w3.org/2000/svg" xmlns:xlink="http://www.w3.org/1999/xlink">
<g id="graph0" class="graph" transform="scale(1.33333 1.33333) rotate(0) translate(4 282)">
<title>G_VIEWS</title>
<polygon style="fill:white;stroke:white;" points="-4,4 -4,-282 460,-282 460,4 -4,4"/>
<text text-anchor="middle" x="228" y="-7" style="font-family:Nimbus Roman No9 L;font-weight:regular;font-size:11.34pt;">Relationship of entities and views</text>
<g id="cluster3" class="cluster"><title>cluster0</title>
<polygon style="fill:lightgray;stroke:lightgray;" points="8,-33 8,-110 367,-110 367,-33 8,-33"/>
<text text-anchor="middle" x="305" y="-93" style="font-family:Nimbus Roman No9 L;font-weight:regular;font-size:11.34pt;">other_thread_space</text>
</g>
<!-- Entity -->
<g id="node1" class="node"><title>Entity</title>
<polygon style="fill:none;stroke:black;" points="365,-278 253,-278 253,-242 365,-242 365,-278"/>
<text text-anchor="middle" x="309" y="-255" style="font-family:Nimbus Roman No9 L;font-weight:regular;font-size:11.34pt;">Vector or Matrix</text>
</g>
<!-- ReadView -->
<g id="node3" class="node"><title>ReadView</title>
<ellipse style="fill:none;stroke:black;" cx="382" cy="-176" rx="42.1777" ry="18"/>
<text text-anchor="middle" x="382" y="-171" style="font-family:Nimbus Roman No9 L;font-weight:regular;font-size:11.34pt;">ReadView</text>
</g>
<!-- Entity&#45;&gt;ReadView -->
<g id="edge3" class="edge"><title>Entity&#45;&gt;ReadView</title>
<path style="fill:none;stroke:black;" d="M325,-242C335,-230 349,-214 360,-201"/>
<polygon style="fill:black;stroke:black;" points="363.049,-202.831 367,-193 357.781,-198.221 363.049,-202.831"/>
<a xlink:title="N&gt;=SZ">
</a>
<a xlink:title="N&gt;=SZ">
</a>
<text text-anchor="middle" x="360" y="-216" style="font-family:Nimbus Roman No9 L;font-weight:regular;font-style:italic;font-size:6.48pt;">N&gt;=SZ</text>
</g>
<!-- WriteView -->
<g id="node4" class="node"><title>WriteView</title>
<ellipse style="fill:none;stroke:black;" cx="205" cy="-176" rx="44.1777" ry="18"/>
<text text-anchor="middle" x="205" y="-171" style="font-family:Nimbus Roman No9 L;font-weight:regular;font-size:11.34pt;">WriteView</text>
</g>
<!-- Entity&#45;&gt;WriteView -->
<g id="edge5" class="edge"><title>Entity&#45;&gt;WriteView</title>
<path style="fill:none;stroke:black;stroke-dasharray:5,2;" d="M287,-242C271,-229 250,-212 233,-198"/>
<polygon style="fill:black;stroke:black;" points="235.1,-195.2 225,-192 230.9,-200.8 235.1,-195.2"/>
<a xlink:title="N&gt;=SZ">
</a>
<a xlink:title="N&gt;=SZ">
</a>
<text text-anchor="middle" x="276" y="-216" style="font-family:Nimbus Roman No9 L;font-weight:regular;font-style:italic;font-size:6.48pt;">N&gt;=SZ</text>
</g>
<!-- ReadView&#45;&gt;ReadView -->
<g id="edge7" class="edge"><title>ReadView&#45;&gt;ReadView</title>
<path style="fill:none;stroke:black;" d="M408,-190C425,-194 442,-190 442,-176 442,-165 431,-160 418,-161"/>
<polygon style="fill:black;stroke:black;" points="417.602,-157.522 408,-162 418.299,-164.488 417.602,-157.522"/>
<a xlink:title="SZ&#45;&#45;">
</a>
<a xlink:title="SZ&#45;&#45;">
</a>
<text text-anchor="middle" x="449" y="-174" style="font-family:Nimbus Roman No9 L;font-weight:regular;font-style:italic;font-size:6.48pt;">SZ&#45;&#45;</text>
</g>
<!-- WriteView&#45;&gt;ReadView -->
<g id="edge11" class="edge"><title>WriteView&#45;&gt;ReadView</title>
<path style="fill:none;stroke:black;" d="M249,-176C274,-176 304,-176 330,-176"/>
<polygon style="fill:black;stroke:black;" points="330,-179.5 340,-176 330,-172.5 330,-179.5"/>
<a xlink:title="writer.sz&gt;=reader.size">
</a>
<a xlink:title="writer.sz&gt;=reader.size">
</a>
<text text-anchor="middle" x="295" y="-179" style="font-family:Nimbus Roman No9 L;font-weight:regular;font-style:italic;font-size:6.48pt;">writer.sz&gt;=reader.size</text>
</g>
<!-- WriteView&#45;&gt;WriteView -->
<g id="edge9" class="edge"><title>WriteView&#45;&gt;WriteView</title>
<path style="fill:none;stroke:black;stroke-dasharray:5,2;" d="M188,-193C168,-214 143,-214 143,-176 143,-143 162,-139 180,-152"/>
<polygon style="fill:black;stroke:black;" points="178.169,-155.049 188,-159 182.779,-149.781 178.169,-155.049"/>
<a xlink:title="SZ&#45;&#45;">
</a>
<a xlink:title="SZ&#45;&#45;">
</a>
<text text-anchor="middle" x="136" y="-174" style="font-family:Nimbus Roman No9 L;font-weight:regular;font-style:italic;font-size:6.48pt;">SZ&#45;&#45;</text>
</g>
<!-- WriteViewMT -->
<g id="node13" class="node"><title>WriteViewMT</title>
<ellipse style="fill:none;stroke:black;" cx="70" cy="-59" rx="54.176" ry="18"/>
<text text-anchor="middle" x="70" y="-54" style="font-family:Nimbus Roman No9 L;font-weight:regular;font-size:11.34pt;">WriteViewMT</text>
</g>
<!-- WriteView&#45;&gt;WriteViewMT -->
<g id="edge15" class="edge"><title>WriteView&#45;&gt;WriteViewMT</title>
<path style="fill:none;stroke:black;stroke-dasharray:5,2;" d="M180,-161C171,-155 160,-147 151,-140 130,-123 108,-100 93,-84"/>
<polygon style="fill:black;stroke:black;" points="95.2191,-81.221 86,-76 89.9511,-85.8306 95.2191,-81.221"/>
<a xlink:title="writer.sz&gt;=writerMT.sz,\nwriterMT.signal:=writer">
</a>
<a xlink:title="writer.sz&gt;=writerMT.sz,\nwriterMT.signal:=writer">
</a>
<text text-anchor="middle" x="193" y="-132" style="font-family:Nimbus Roman No9 L;font-weight:regular;font-style:italic;font-size:6.48pt;">writer.sz&gt;=writerMT.sz,</text>
<text text-anchor="middle" x="193" y="-121" style="font-family:Nimbus Roman No9 L;font-weight:regular;font-style:italic;font-size:6.48pt;">writerMT.signal:=writer</text>
</g>
<!-- ReadViewMT -->
<g id="node12" class="node"><title>ReadViewMT</title>
<ellipse style="fill:none;stroke:black;" cx="307" cy="-59" rx="52.176" ry="18"/>
<text text-anchor="middle" x="307" y="-54" style="font-family:Nimbus Roman No9 L;font-weight:regular;font-size:11.34pt;">ReadViewMT</text>
</g>
<!-- ReadViewMT&#45;&gt;WriteView -->
<g id="edge17" class="edge"><title>ReadViewMT&#45;&gt;WriteView</title>
<path style="fill:none;stroke:black;stroke-dasharray:5,2;" d="M285,-84C265,-107 237,-139 220,-159"/>
<polygon style="fill:black;stroke:black;" points="287.404,-86.546 292,-77 282.454,-81.5962 287.404,-86.546"/>
<a xlink:title="writer.sz&gt;=readerMT.sz,\nreaderMT.signal:=writer">
</a>
<a xlink:title="writer.sz&gt;=readerMT.sz,\nreaderMT.signal:=writer">
</a>
<text text-anchor="middle" x="292" y="-132" style="font-family:Nimbus Roman No9 L;font-weight:regular;font-style:italic;font-size:6.48pt;">writer.sz&gt;=readerMT.sz,</text>
<text text-anchor="middle" x="292" y="-121" style="font-family:Nimbus Roman No9 L;font-weight:regular;font-style:italic;font-size:6.48pt;">readerMT.signal:=writer</text>
</g>
<!-- WriteViewMT&#45;&gt;ReadViewMT -->
<g id="edge19" class="edge"><title>WriteViewMT&#45;&gt;ReadViewMT</title>
<path style="fill:none;stroke:black;" d="M125,-59C161,-59 207,-59 244,-59"/>
<polygon style="fill:black;stroke:black;" points="244,-62.5001 254,-59 244,-55.5001 244,-62.5001"/>
<a xlink:title="writerMT.sz&gt;=readerMT.sz,\nreaderMT.signal:=writerMT.signal">
</a>
<a xlink:title="writerMT.sz&gt;=readerMT.sz,\nreaderMT.signal:=writerMT.signal">
</a>
<text text-anchor="middle" x="190" y="-73" style="font-family:Nimbus Roman No9 L;font-weight:regular;font-style:italic;font-size:6.48pt;">writerMT.sz&gt;=readerMT.sz,</text>
<text text-anchor="middle" x="190" y="-62" style="font-family:Nimbus Roman No9 L;font-weight:regular;font-style:italic;font-size:6.48pt;">readerMT.signal:=writerMT.signal</text>
</g>
</g>
</svg>
